<svg width="150" height="24" viewBox="0 0 150 24" fill="none" xmlns="http://www.w3.org/2000/svg">
<path d="M8.24548 20.4663C5.97794 18.2223 4.08229 15.6599 2.61122 12.8501C1.55725 10.8368 0.612336 7.88484 0.142858 6.30434L0 5.82347L1.88689 6.7579L1.913 6.85193C2.13827 7.66116 2.94773 10.4437 3.9054 12.2729C5.09445 14.5441 6.65669 16.5896 8.54841 18.3524L8.61806 18.4173V20.835L8.24548 20.4663V20.4663Z" fill="#0D44D4"/>
<path style="mix-blend-mode:soft-light" d="M2.80464 12.7486C1.7635 10.76 0.82983 7.85065 0.352051 6.24208L1.70185 6.91056C1.93436 7.74568 2.74487 10.5287 3.71115 12.3743C4.91348 14.6708 6.49058 16.7341 8.39883 18.5124V20.3108C6.14766 18.083 4.26839 15.5445 2.80457 12.7485L2.80464 12.7486Z" fill="url(#paint0_linear_4049_352)"/>
<path d="M12.9662 7.49166L8.94625 6.48116L4.17404 7.68078L4.31629 8.21636C4.33969 8.30458 4.89807 10.3921 5.58874 11.7114C6.35035 13.1659 7.35586 14.4689 8.57767 15.5838L8.94625 15.9202L9.31483 15.5838C10.5366 14.4688 11.5421 13.1659 12.3038 11.7113C12.8719 10.6261 13.3503 9.02197 13.5152 8.43756L14.8219 7.68349C14.4567 8.86862 13.8637 10.6222 13.2119 11.8671C12.1089 13.9739 10.6753 15.8757 8.94617 17.5268C7.21716 15.8758 5.78352 13.9739 4.6805 11.8671C3.86787 10.3149 3.14528 7.9677 2.84326 6.92294L8.9461 5.38885L14.2845 6.7308L12.9661 7.49166H12.9662Z" fill="#0D44D4"/>
<path style="mix-blend-mode:soft-light" d="M8.94646 17.3245C7.27435 15.7074 5.8832 13.8493 4.80999 11.7994C4.0326 10.3146 3.33031 8.06603 3.02588 7.02746L8.94646 5.53918L13.9002 6.78446L12.9447 7.33582L8.94646 6.33075L3.9954 7.57535L4.17561 8.25372C4.19916 8.34254 4.76146 10.445 5.45983 11.7789C6.22944 13.2487 7.24544 14.5651 8.47955 15.6915L8.94646 16.1176L9.41337 15.6915C10.6476 14.5651 11.6636 13.2488 12.4331 11.7789C12.9857 10.7234 13.4501 9.19901 13.6396 8.53423L14.5715 7.99638C14.1958 9.18083 13.6622 10.693 13.083 11.7994C12.0098 13.8493 10.6186 15.7073 8.94646 17.3244V17.3245Z" fill="url(#paint1_linear_4049_352)"/>
<path style="mix-blend-mode:soft-light" d="M8.94646 17.3245C7.27435 15.7074 5.8832 13.8493 4.80999 11.7994C4.0326 10.3146 3.33031 8.06603 3.02588 7.02746L8.94646 5.53918L13.9002 6.78446L12.9447 7.33582L8.94646 6.33075L3.9954 7.57535L4.17561 8.25372C4.19916 8.34254 4.76146 10.445 5.45983 11.7789C6.22944 13.2487 7.24544 14.5651 8.47955 15.6915L8.94646 16.1176L9.41337 15.6915C10.6476 14.5651 11.6636 13.2488 12.4331 11.7789C12.9857 10.7234 13.4501 9.19901 13.6396 8.53423L14.5715 7.99638C14.1958 9.18083 13.6622 10.693 13.083 11.7994C12.0098 13.8493 10.6186 15.7073 8.94646 17.3244V17.3245Z" fill="url(#paint2_linear_4049_352)"/>
<path d="M12.3667 8.46865C12.1607 9.15985 11.7688 10.3748 11.3347 11.204C10.7105 12.3962 9.90819 13.4782 8.94599 14.4264C7.98379 13.4782 7.18158 12.3962 6.55732 11.2041C6.12377 10.376 5.73157 9.1603 5.52539 8.46865L8.94599 7.60878L12.3667 8.46865Z" fill="#0D44D4"/>
<path style="mix-blend-mode:soft-light" d="M11.9988 8.67664C11.7873 9.35757 11.4455 10.3637 11.0765 11.0687C10.5123 12.147 9.79624 13.1357 8.94618 14.0127C8.67714 13.7349 8.42199 13.447 8.1814 13.148C7.8978 12.7973 7.63314 12.4321 7.38961 12.0537C7.26493 11.8597 7.1454 11.6636 7.03167 11.4632C6.95733 11.3334 6.88511 11.2014 6.81583 11.0687C6.67728 10.804 6.54242 10.4971 6.41699 10.1814C6.20848 9.65506 6.02547 9.10242 5.89355 8.67664L8.12888 8.11524L8.94618 7.90967L9.60455 8.07517L10.5006 8.30043L11.6445 8.58766L11.9988 8.67664Z" fill="url(#paint3_linear_4049_352)"/>
<path d="M9.27404 18.4173L9.34369 18.3525C11.2363 16.5887 12.7986 14.5433 13.987 12.273C15.0653 10.2129 15.9472 6.97697 16.0441 6.61481L16.1297 6.29249L8.94598 4.48695L2.20213 6.18163L0.430176 5.30516L8.94598 3.16455L17.9999 5.43987L17.9381 5.65691C17.541 7.05221 16.4868 10.5462 15.2808 12.85C13.809 15.6608 11.9134 18.2235 9.64661 20.4667L9.27404 20.8354V18.4175V18.4173Z" fill="#0D44D4"/>
<path style="mix-blend-mode:soft-light" d="M17.7277 5.59699C17.3485 6.92898 16.2892 10.4519 15.0869 12.7484C13.623 15.5444 11.7441 18.0831 9.49274 20.3111V18.5125C11.4008 16.7343 12.9785 14.671 14.1807 12.3744C15.3042 10.228 16.217 6.8145 16.2556 6.67013L16.3978 6.13424L8.94591 4.26123L2.22681 5.94987L1.05957 5.37248L8.94591 3.39012L17.7276 5.59699H17.7277Z" fill="url(#paint4_linear_4049_352)"/>
<path d="M8.11865 10.0282C8.11865 10.3452 8.29698 10.6202 8.55862 10.7592L8.23796 11.9845H9.6544L9.33374 10.7592C9.59538 10.6202 9.77371 10.3452 9.77371 10.0282C9.77371 9.57121 9.40324 9.20074 8.94622 9.20074C8.48919 9.20074 8.11873 9.57121 8.11873 10.0282H8.11865Z" fill="white"/>
<path style="mix-blend-mode:soft-light" d="M11.6445 8.58767L8.18144 13.148C7.89784 12.7974 7.63318 12.4321 7.38965 12.0537L10.5006 8.30045L11.6445 8.58767Z" fill="url(#paint5_linear_4049_352)"/>
<path style="mix-blend-mode:soft-light" d="M9.60455 8.07509L7.03167 11.4631C6.95733 11.3333 6.88511 11.2014 6.81583 11.0686C6.67728 10.804 6.54242 10.497 6.41699 10.1814L8.12888 8.11516L8.94618 7.90959L9.60455 8.07509Z" fill="url(#paint6_linear_4049_352)"/>
<path d="M23.6816 5.616H34.3916V8.586H27.6596V10.296H33.4196V13.14H27.6596V15.03H34.5176V18H23.6816V5.616ZM36.5458 18V4.95H40.1278V18H36.5458ZM47.328 8.28C49.068 8.28 50.394 8.688 51.306 9.504C52.23 10.32 52.692 11.568 52.692 13.248V13.86H45.564C45.564 14.544 45.714 15.06 46.014 15.408C46.326 15.756 46.812 15.93 47.472 15.93C48.072 15.93 48.51 15.804 48.786 15.552C49.074 15.3 49.218 14.964 49.218 14.544H52.692C52.692 15.696 52.254 16.596 51.378 17.244C50.502 17.892 49.224 18.216 47.544 18.216C45.78 18.216 44.412 17.808 43.44 16.992C42.468 16.164 41.982 14.916 41.982 13.248C41.982 11.616 42.456 10.38 43.404 9.54C44.352 8.7 45.66 8.28 47.328 8.28ZM47.472 10.566C46.344 10.566 45.714 11.1 45.582 12.168H49.074C49.074 11.676 48.93 11.286 48.642 10.998C48.366 10.71 47.976 10.566 47.472 10.566ZM59.3338 8.28C60.8938 8.28 62.1538 8.616 63.1138 9.288C64.0858 9.948 64.5718 10.962 64.5718 12.33H61.0978C61.0978 11.25 60.5098 10.71 59.3338 10.71C58.1578 10.71 57.5698 11.388 57.5698 12.744V13.77C57.5698 15.114 58.1818 15.786 59.4058 15.786C60.6298 15.786 61.2418 15.234 61.2418 14.13H64.5718C64.5718 15.51 64.0858 16.536 63.1138 17.208C62.1538 17.88 60.8938 18.216 59.3338 18.216C57.6658 18.216 56.3578 17.796 55.4098 16.956C54.4618 16.116 53.9878 14.88 53.9878 13.248C53.9878 11.616 54.4618 10.38 55.4098 9.54C56.3578 8.7 57.6658 8.28 59.3338 8.28ZM72.7617 8.496V10.926H70.7457V14.544C70.7457 14.976 70.8177 15.294 70.9617 15.498C71.1057 15.69 71.3697 15.786 71.7537 15.786H72.7617V17.892C72.4737 17.988 72.1017 18.066 71.6457 18.126C71.1897 18.186 70.7937 18.216 70.4577 18.216C69.4017 18.216 68.5857 18.024 68.0097 17.64C67.4457 17.256 67.1637 16.602 67.1637 15.678V10.926H65.8317V8.496H67.3077L68.0817 5.616H70.7457V8.496H72.7617ZM80.2018 8.262C80.4778 8.262 80.7238 8.298 80.9398 8.37C81.1558 8.43 81.2638 8.466 81.2638 8.478V11.484H80.1118C79.3678 11.484 78.8278 11.676 78.4918 12.06C78.1678 12.444 78.0058 13.014 78.0058 13.77V18H74.4238V8.496H77.3578L77.5918 9.936C77.8078 9.384 78.1498 8.97 78.6178 8.694C79.0858 8.406 79.6138 8.262 80.2018 8.262ZM87.617 8.28C89.285 8.28 90.593 8.706 91.541 9.558C92.501 10.398 92.981 11.628 92.981 13.248C92.981 14.868 92.501 16.104 91.541 16.956C90.593 17.796 89.285 18.216 87.617 18.216C85.949 18.216 84.641 17.796 83.693 16.956C82.745 16.116 82.271 14.88 82.271 13.248C82.271 11.616 82.745 10.38 83.693 9.54C84.641 8.7 85.949 8.28 87.617 8.28ZM87.617 10.71C86.441 10.71 85.853 11.388 85.853 12.744V13.77C85.853 15.114 86.441 15.786 87.617 15.786C88.805 15.786 89.399 15.114 89.399 13.77V12.744C89.399 11.388 88.805 10.71 87.617 10.71ZM100.865 5.4C102.701 5.4 104.153 5.862 105.221 6.786C106.289 7.698 106.823 9.006 106.823 10.71H103.025C103.025 9.99 102.833 9.42 102.449 9C102.077 8.58 101.543 8.37 100.847 8.37C100.043 8.37 99.4489 8.622 99.0649 9.126C98.6929 9.63 98.5069 10.332 98.5069 11.232V12.384C98.5069 13.272 98.6929 13.974 99.0649 14.49C99.4489 14.994 100.031 15.246 100.811 15.246C101.579 15.246 102.161 15.048 102.557 14.652C102.953 14.256 103.151 13.698 103.151 12.978H106.823C106.823 14.67 106.301 15.966 105.257 16.866C104.225 17.766 102.761 18.216 100.865 18.216C98.7529 18.216 97.1509 17.676 96.0589 16.596C94.9789 15.516 94.4389 13.92 94.4389 11.808C94.4389 9.696 94.9789 8.1 96.0589 7.02C97.1509 5.94 98.7529 5.4 100.865 5.4ZM112.301 9.486C112.685 9.102 113.135 8.808 113.651 8.604C114.167 8.388 114.707 8.28 115.271 8.28C116.375 8.28 117.203 8.586 117.755 9.198C118.307 9.81 118.583 10.692 118.583 11.844V18H115.001V12.276C115.001 11.868 114.893 11.544 114.677 11.304C114.473 11.052 114.179 10.926 113.795 10.926C113.351 10.926 112.991 11.07 112.715 11.358C112.439 11.646 112.301 12 112.301 12.42V18H108.719V4.95H112.301V9.486ZM125.423 8.28C126.875 8.28 128.057 8.526 128.969 9.018C129.881 9.498 130.337 10.284 130.337 11.376V15.084C130.337 15.288 130.385 15.456 130.481 15.588C130.577 15.72 130.721 15.786 130.913 15.786H131.561V17.856C131.525 17.88 131.429 17.922 131.273 17.982C131.129 18.03 130.919 18.078 130.643 18.126C130.367 18.186 130.049 18.216 129.689 18.216C128.993 18.216 128.417 18.114 127.961 17.91C127.517 17.694 127.211 17.4 127.043 17.028C126.587 17.388 126.077 17.676 125.513 17.892C124.949 18.108 124.289 18.216 123.533 18.216C121.301 18.216 120.185 17.328 120.185 15.552C120.185 14.628 120.431 13.926 120.923 13.446C121.427 12.954 122.147 12.618 123.083 12.438C124.019 12.258 125.243 12.168 126.755 12.168V11.7C126.755 11.328 126.623 11.046 126.359 10.854C126.107 10.662 125.777 10.566 125.369 10.566C124.997 10.566 124.673 10.632 124.397 10.764C124.133 10.896 124.001 11.106 124.001 11.394V11.466H120.473C120.461 11.406 120.455 11.322 120.455 11.214C120.455 10.314 120.881 9.6 121.733 9.072C122.597 8.544 123.827 8.28 125.423 8.28ZM126.755 13.86C125.735 13.86 124.979 13.974 124.487 14.202C124.007 14.418 123.767 14.712 123.767 15.084C123.767 15.684 124.175 15.984 124.991 15.984C125.459 15.984 125.867 15.858 126.215 15.606C126.575 15.354 126.755 15.042 126.755 14.67V13.86ZM132.856 7.38V4.95H136.438V7.38H132.856ZM132.856 18V8.496H136.438V18H132.856ZM145.277 8.28C146.381 8.28 147.209 8.586 147.761 9.198C148.313 9.81 148.589 10.692 148.589 11.844V18H145.007V12.276C145.007 11.868 144.899 11.544 144.683 11.304C144.479 11.052 144.185 10.926 143.801 10.926C143.357 10.926 142.997 11.07 142.721 11.358C142.445 11.646 142.307 12 142.307 12.42V18H138.725V8.496H141.659L141.893 9.936C142.265 9.432 142.751 9.03 143.351 8.73C143.963 8.43 144.605 8.28 145.277 8.28Z" fill="#0D44D4"/>
<defs>
<linearGradient id="paint0_linear_4049_352" x1="1.16369" y1="5.7754" x2="6.99628" y2="18.7772" gradientUnits="userSpaceOnUse">
<stop stop-color="white"/>
<stop offset="1" stop-color="#231F20"/>
</linearGradient>
<linearGradient id="paint1_linear_4049_352" x1="3.02588" y1="11.4318" x2="14.5715" y2="11.4318" gradientUnits="userSpaceOnUse">
<stop stop-color="white"/>
<stop offset="1" stop-color="#231F20"/>
</linearGradient>
<linearGradient id="paint2_linear_4049_352" x1="3.02588" y1="11.4318" x2="14.5715" y2="11.4318" gradientUnits="userSpaceOnUse">
<stop stop-color="white"/>
<stop offset="1" stop-color="#231F20"/>
</linearGradient>
<linearGradient id="paint3_linear_4049_352" x1="5.89355" y1="10.9612" x2="11.9988" y2="10.9612" gradientUnits="userSpaceOnUse">
<stop stop-color="white"/>
<stop offset="1" stop-color="#231F20"/>
</linearGradient>
<linearGradient id="paint4_linear_4049_352" x1="1.05957" y1="11.8506" x2="17.7277" y2="11.8506" gradientUnits="userSpaceOnUse">
<stop stop-color="white"/>
<stop offset="1" stop-color="#231F20"/>
</linearGradient>
<linearGradient id="paint5_linear_4049_352" x1="7.38965" y1="10.7242" x2="11.6445" y2="10.7242" gradientUnits="userSpaceOnUse">
<stop stop-color="white"/>
<stop offset="1" stop-color="#231F20"/>
</linearGradient>
<linearGradient id="paint6_linear_4049_352" x1="6.41707" y1="9.68638" x2="9.60455" y2="9.68638" gradientUnits="userSpaceOnUse">
<stop stop-color="white"/>
<stop offset="1" stop-color="#231F20"/>
</linearGradient>
</defs>
</svg>
