<svg width="191" height="26" viewBox="0 0 191 26" fill="none" xmlns="http://www.w3.org/2000/svg">
<path d="M11.6201 24.3696C8.42629 21.2089 5.75626 17.5997 3.68426 13.6421C2.19974 10.8064 0.868824 6.64856 0.207564 4.42243L0.00634766 3.74512L2.66404 5.06126L2.70082 5.1937C3.01811 6.3335 4.15823 10.2527 5.50711 12.8291C7.18189 16.0281 9.3823 18.9093 12.0468 21.3922L12.1449 21.4835V24.8889L11.6201 24.3695V24.3696Z" fill="white"/>
<path style="mix-blend-mode:soft-light" d="M3.95692 13.4991C2.49048 10.6983 1.17539 6.60039 0.502441 4.33472L2.40363 5.27628C2.73113 6.45254 3.87273 10.3724 5.23373 12.9719C6.92722 16.2066 9.14858 19.1128 11.8363 21.6175V24.1505C8.66557 21.0127 6.01862 17.4372 3.95681 13.499L3.95692 13.4991Z" fill="url(#paint0_linear_4069_709)"/>
<path d="M18.2689 6.09486L12.6068 4.67157L5.88515 6.36123L6.08551 7.11561C6.11846 7.23987 6.90494 10.1801 7.87775 12.0383C8.95048 14.0871 10.3668 15.9222 12.0877 17.4926L12.6068 17.9665L13.126 17.4926C14.8469 15.9221 16.2631 14.0871 17.3359 12.0382C18.1362 10.5097 18.8099 8.25031 19.0422 7.42716L20.8827 6.36506C20.3683 8.03431 19.5331 10.5042 18.615 12.2577C17.0614 15.2251 15.0421 17.9038 12.6067 20.2294C10.1714 17.9039 8.1521 15.2252 6.59849 12.2577C5.45391 10.0715 4.43613 6.76537 4.01074 5.29382L12.6066 3.13306L20.1258 5.02319L18.2687 6.09486H18.2689Z" fill="white"/>
<path style="mix-blend-mode:soft-light" d="M12.6072 19.9444C10.252 17.6667 8.2926 15.0495 6.78098 12.1623C5.68604 10.071 4.69686 6.9038 4.26807 5.44097L12.6072 3.34473L19.5846 5.0987L18.2387 5.87529L12.6072 4.45965L5.63364 6.21267L5.88747 7.16815C5.92063 7.29326 6.71264 10.2545 7.69629 12.1334C8.78028 14.2036 10.2113 16.0577 11.9496 17.6443L12.6072 18.2445L13.2649 17.6443C15.0032 16.0578 16.4343 14.2037 17.5182 12.1334C18.2965 10.6467 18.9506 8.4996 19.2175 7.56325L20.5301 6.80569C20.001 8.47399 19.2494 10.6039 18.4336 12.1622C16.9219 15.0495 14.9624 17.6666 12.6072 19.9443V19.9444Z" fill="url(#paint1_linear_4069_709)"/>
<path style="mix-blend-mode:soft-light" d="M12.6072 19.9444C10.252 17.6667 8.2926 15.0495 6.78098 12.1623C5.68604 10.071 4.69686 6.9038 4.26807 5.44097L12.6072 3.34473L19.5846 5.0987L18.2387 5.87529L12.6072 4.45965L5.63364 6.21267L5.88747 7.16815C5.92063 7.29326 6.71264 10.2545 7.69629 12.1334C8.78028 14.2036 10.2113 16.0577 11.9496 17.6443L12.6072 18.2445L13.2649 17.6443C15.0032 16.0578 16.4343 14.2037 17.5182 12.1334C18.2965 10.6467 18.9506 8.4996 19.2175 7.56325L20.5301 6.80569C20.001 8.47399 19.2494 10.6039 18.4336 12.1622C16.9219 15.0495 14.9624 17.6666 12.6072 19.9443V19.9444Z" fill="url(#paint2_linear_4069_709)"/>
<path d="M17.4251 7.47089C17.1349 8.44445 16.5829 10.1557 15.9714 11.3237C15.0923 13.0029 13.9622 14.5269 12.607 15.8624C11.2517 14.5269 10.1218 13.0029 9.24254 11.3238C8.63187 10.1574 8.07946 8.44508 7.78906 7.47089L12.607 6.25977L17.4251 7.47089Z" fill="white"/>
<path style="mix-blend-mode:soft-light" d="M16.9069 7.76387C16.609 8.72297 16.1275 10.1401 15.6078 11.1331C14.8131 12.6518 13.8046 14.0444 12.6072 15.2798C12.2283 14.8885 11.8689 14.4829 11.5301 14.0618C11.1306 13.5679 10.7578 13.0534 10.4148 12.5205C10.2392 12.2473 10.0708 11.971 9.91065 11.6887C9.80595 11.5059 9.70423 11.3201 9.60665 11.1331C9.41149 10.7603 9.22154 10.328 9.04488 9.88339C8.75119 9.14198 8.49342 8.36358 8.30762 7.76387L11.4561 6.97314L12.6072 6.68359L13.5346 6.9167L14.7966 7.23399L16.4078 7.63855L16.9069 7.76387Z" fill="url(#paint3_linear_4069_709)"/>
<path d="M13.0694 21.4836L13.1675 21.3923C15.8333 18.9079 18.0337 16.0269 19.7076 12.8293C21.2265 9.92762 22.4685 5.3698 22.6051 4.8597L22.7256 4.40571L12.6073 1.86261L3.1086 4.24956L0.612793 3.01505L12.6073 0L25.3597 3.20479L25.2728 3.51049C24.7134 5.47578 23.2286 10.397 21.5299 13.642C19.4569 17.6011 16.7869 21.2105 13.5942 24.3701L13.0694 24.8895V21.4838V21.4836Z" fill="white"/>
<path style="mix-blend-mode:soft-light" d="M24.9761 3.42601C24.442 5.30211 22.95 10.2642 21.2566 13.4988C19.1946 17.437 16.5483 21.0127 13.3772 24.1509V21.6175C16.0646 19.1129 18.2868 16.2068 19.9801 12.972C21.5626 9.9488 22.8483 5.14086 22.9027 4.93752L23.1029 4.18272L12.6069 1.54459L3.14309 3.92304L1.49902 3.10978L12.6069 0.317627L24.976 3.42601H24.9761Z" fill="url(#paint4_linear_4069_709)"/>
<path d="M11.4409 9.66748C11.4409 10.1139 11.6921 10.5013 12.0606 10.697L11.609 12.4229H13.604L13.1524 10.697C13.5209 10.5013 13.7721 10.1139 13.7721 9.66748C13.7721 9.02376 13.2503 8.50195 12.6065 8.50195C11.9628 8.50195 11.441 9.02376 11.441 9.66748H11.4409Z" fill="white"/>
<path style="mix-blend-mode:soft-light" d="M16.4076 7.63845L11.5298 14.0617C11.1303 13.5678 10.7576 13.0533 10.4146 12.5204L14.7963 7.23389L16.4076 7.63845Z" fill="url(#paint5_linear_4069_709)"/>
<path style="mix-blend-mode:soft-light" d="M13.5341 6.91645L9.91021 11.6885C9.80551 11.5056 9.70378 11.3198 9.6062 11.1329C9.41104 10.7601 9.2211 10.3278 9.04443 9.88314L11.4556 6.9729L12.6068 6.68335L13.5341 6.91645Z" fill="url(#paint6_linear_4069_709)"/>
<path d="M32.9704 4.49521H46.3794V8.21366H37.9509V10.3546H45.1624V13.9153H37.9509V16.2816H46.5371V20H32.9704V4.49521ZM49.0765 20V3.66138H53.5611V20H49.0765ZM62.5757 7.83054C64.7542 7.83054 66.4144 8.34136 67.5562 9.36299C68.713 10.3846 69.2915 11.9471 69.2915 14.0505V14.8167H60.3672C60.3672 15.6731 60.555 16.3191 60.9306 16.7548C61.3212 17.1905 61.9297 17.4084 62.756 17.4084C63.5072 17.4084 64.0556 17.2506 64.4012 16.9351C64.7617 16.6196 64.942 16.1989 64.942 15.6731H69.2915C69.2915 17.1154 68.7431 18.2422 67.6463 19.0535C66.5496 19.8648 64.9495 20.2704 62.8462 20.2704C60.6376 20.2704 58.9249 19.7596 57.708 18.738C56.491 17.7013 55.8825 16.1388 55.8825 14.0505C55.8825 12.0072 56.476 10.4597 57.6629 9.40806C58.8498 8.35638 60.4874 7.83054 62.5757 7.83054ZM62.756 10.6926C61.3438 10.6926 60.555 11.3612 60.3897 12.6983H64.7617C64.7617 12.0823 64.5814 11.5941 64.2209 11.2335C63.8753 10.8729 63.387 10.6926 62.756 10.6926ZM77.6071 7.83054C79.5602 7.83054 81.1377 8.25121 82.3397 9.09256C83.5566 9.91888 84.1651 11.1884 84.1651 12.9011H79.8156C79.8156 11.549 79.0794 10.8729 77.6071 10.8729C76.1347 10.8729 75.3986 11.7218 75.3986 13.4195V14.704C75.3986 16.3867 76.1648 17.2281 77.6972 17.2281C79.2297 17.2281 79.9959 16.537 79.9959 15.1548H84.1651C84.1651 16.8825 83.5566 18.1671 82.3397 19.0084C81.1377 19.8498 79.5602 20.2704 77.6071 20.2704C75.5188 20.2704 73.8811 19.7446 72.6942 18.6929C71.5073 17.6412 70.9139 16.0938 70.9139 14.0505C70.9139 12.0072 71.5073 10.4597 72.6942 9.40806C73.8811 8.35638 75.5188 7.83054 77.6071 7.83054ZM94.4188 8.10098V11.1433H91.8948V15.6731C91.8948 16.2139 91.9849 16.6121 92.1652 16.8675C92.3455 17.1079 92.676 17.2281 93.1568 17.2281H94.4188V19.8648C94.0582 19.985 93.5925 20.0826 93.0216 20.1578C92.4506 20.2329 91.9549 20.2704 91.5342 20.2704C90.2121 20.2704 89.1904 20.03 88.4693 19.5493C87.7632 19.0685 87.4101 18.2497 87.4101 17.0929V11.1433H85.7424V8.10098H87.5904L88.5594 4.49521H91.8948V8.10098H94.4188ZM103.734 7.80801C104.079 7.80801 104.387 7.85308 104.658 7.94322C104.928 8.01834 105.063 8.06341 105.063 8.07844V11.842H103.621C102.69 11.842 102.013 12.0823 101.593 12.5631C101.187 13.0439 100.984 13.7575 100.984 14.704V20H96.4997V8.10098H100.173L100.466 9.90386C100.736 9.21275 101.165 8.69442 101.751 8.34887C102.337 7.98829 102.998 7.80801 103.734 7.80801ZM113.018 7.83054C115.106 7.83054 116.744 8.3639 117.931 9.4306C119.132 10.4823 119.733 12.0222 119.733 14.0505C119.733 16.0787 119.132 17.6262 117.931 18.6929C116.744 19.7446 115.106 20.2704 113.018 20.2704C110.929 20.2704 109.292 19.7446 108.105 18.6929C106.918 17.6412 106.325 16.0938 106.325 14.0505C106.325 12.0072 106.918 10.4597 108.105 9.40806C109.292 8.35638 110.929 7.83054 113.018 7.83054ZM113.018 10.8729C111.545 10.8729 110.809 11.7218 110.809 13.4195V14.704C110.809 16.3867 111.545 17.2281 113.018 17.2281C114.505 17.2281 115.249 16.3867 115.249 14.704V13.4195C115.249 11.7218 114.505 10.8729 113.018 10.8729ZM129.604 4.22478C131.903 4.22478 133.721 4.8032 135.058 5.96005C136.395 7.10188 137.063 8.7395 137.063 10.8729H132.308C132.308 9.97147 132.068 9.25782 131.587 8.73198C131.121 8.20614 130.453 7.94322 129.582 7.94322C128.575 7.94322 127.831 8.25873 127.35 8.88974C126.885 9.52074 126.652 10.3996 126.652 11.5265V12.9688C126.652 14.0805 126.885 14.9594 127.35 15.6055C127.831 16.2365 128.56 16.552 129.536 16.552C130.498 16.552 131.227 16.3041 131.722 15.8083C132.218 15.3125 132.466 14.6139 132.466 13.7124H137.063C137.063 15.8308 136.41 17.4534 135.103 18.5802C133.811 19.707 131.978 20.2704 129.604 20.2704C126.96 20.2704 124.954 19.5944 123.587 18.2422C122.235 16.89 121.559 14.8918 121.559 12.2476C121.559 9.60338 122.235 7.60518 123.587 6.25302C124.954 4.90086 126.96 4.22478 129.604 4.22478ZM143.922 9.34046C144.402 8.85969 144.966 8.4916 145.612 8.23619C146.258 7.96576 146.934 7.83054 147.64 7.83054C149.022 7.83054 150.059 8.21365 150.75 8.97988C151.441 9.74611 151.787 10.8504 151.787 12.2927V20H147.302V12.8335C147.302 12.3227 147.167 11.9171 146.896 11.6166C146.641 11.3011 146.273 11.1433 145.792 11.1433C145.236 11.1433 144.786 11.3236 144.44 11.6842C144.094 12.0448 143.922 12.488 143.922 13.0138V20H139.437V3.66138H143.922V9.34046ZM160.35 7.83054C162.168 7.83054 163.648 8.13853 164.79 8.75452C165.932 9.35548 166.503 10.3396 166.503 11.7067V16.3492C166.503 16.6046 166.563 16.8149 166.683 16.9802C166.803 17.1454 166.983 17.2281 167.224 17.2281H168.035V19.8197C167.99 19.8498 167.87 19.9023 167.674 19.9775C167.494 20.0376 167.231 20.0977 166.886 20.1578C166.54 20.2329 166.142 20.2704 165.691 20.2704C164.82 20.2704 164.099 20.1427 163.528 19.8873C162.972 19.6169 162.589 19.2488 162.378 18.7831C161.808 19.2338 161.169 19.5944 160.463 19.8648C159.757 20.1352 158.93 20.2704 157.984 20.2704C155.189 20.2704 153.792 19.1587 153.792 16.9351C153.792 15.7782 154.1 14.8993 154.716 14.2984C155.347 13.6824 156.249 13.2617 157.421 13.0364C158.592 12.811 160.125 12.6983 162.018 12.6983V12.1124C162.018 11.6466 161.853 11.2936 161.522 11.0532C161.207 10.8128 160.793 10.6926 160.283 10.6926C159.817 10.6926 159.411 10.7753 159.066 10.9405C158.735 11.1058 158.57 11.3687 158.57 11.7293V11.8194H154.153C154.138 11.7443 154.13 11.6391 154.13 11.5039C154.13 10.3771 154.664 9.48318 155.73 8.82213C156.812 8.16107 158.352 7.83054 160.35 7.83054ZM162.018 14.8167C160.741 14.8167 159.794 14.9594 159.178 15.2449C158.577 15.5153 158.277 15.8834 158.277 16.3492C158.277 17.1004 158.788 17.476 159.809 17.476C160.395 17.476 160.906 17.3182 161.342 17.0027C161.793 16.6872 162.018 16.2966 162.018 15.8308V14.8167ZM169.657 6.70374V3.66138H174.142V6.70374H169.657ZM169.657 20V8.10098H174.142V20H169.657ZM185.207 7.83054C186.59 7.83054 187.626 8.21365 188.317 8.97988C189.009 9.74611 189.354 10.8504 189.354 12.2927V20H184.869V12.8335C184.869 12.3227 184.734 11.9171 184.464 11.6166C184.208 11.3011 183.84 11.1433 183.36 11.1433C182.804 11.1433 182.353 11.3236 182.007 11.6842C181.662 12.0448 181.489 12.488 181.489 13.0138V20H177.004V8.10098H180.678L180.971 9.90386C181.436 9.27285 182.045 8.76954 182.796 8.39394C183.562 8.01834 184.366 7.83054 185.207 7.83054Z" fill="white"/>
<defs>
<linearGradient id="paint0_linear_4069_709" x1="1.64564" y1="3.67739" x2="9.86086" y2="21.9905" gradientUnits="userSpaceOnUse">
<stop stop-color="white"/>
<stop offset="1" stop-color="#231F20"/>
</linearGradient>
<linearGradient id="paint1_linear_4069_709" x1="4.26807" y1="11.6445" x2="20.5301" y2="11.6445" gradientUnits="userSpaceOnUse">
<stop stop-color="white"/>
<stop offset="1" stop-color="#231F20"/>
</linearGradient>
<linearGradient id="paint2_linear_4069_709" x1="4.26807" y1="11.6445" x2="20.5301" y2="11.6445" gradientUnits="userSpaceOnUse">
<stop stop-color="white"/>
<stop offset="1" stop-color="#231F20"/>
</linearGradient>
<linearGradient id="paint3_linear_4069_709" x1="8.30762" y1="10.9816" x2="16.9069" y2="10.9816" gradientUnits="userSpaceOnUse">
<stop stop-color="white"/>
<stop offset="1" stop-color="#231F20"/>
</linearGradient>
<linearGradient id="paint4_linear_4069_709" x1="1.49902" y1="12.2342" x2="24.9761" y2="12.2342" gradientUnits="userSpaceOnUse">
<stop stop-color="white"/>
<stop offset="1" stop-color="#231F20"/>
</linearGradient>
<linearGradient id="paint5_linear_4069_709" x1="10.4146" y1="10.6478" x2="16.4076" y2="10.6478" gradientUnits="userSpaceOnUse">
<stop stop-color="white"/>
<stop offset="1" stop-color="#231F20"/>
</linearGradient>
<linearGradient id="paint6_linear_4069_709" x1="9.04454" y1="9.18596" x2="13.5341" y2="9.18596" gradientUnits="userSpaceOnUse">
<stop stop-color="white"/>
<stop offset="1" stop-color="#231F20"/>
</linearGradient>
</defs>
</svg>
